<?xml version="1.0" encoding="utf-8"?>
<!-- Generator: Adobe Illustrator 25.0.0, SVG Export Plug-In . SVG Version: 6.00 Build 0)  -->
<svg version="1.1" id="Layer_1" xmlns="http://www.w3.org/2000/svg" xmlns:xlink="http://www.w3.org/1999/xlink" x="0px" y="0px"
	 viewBox="0 0 360 250" style="enable-background:new 0 0 360 250;" xml:space="preserve">
<style type="text/css">
	.st0{fill:url(#SVGID_1_);}
	.st1{fill:none;stroke:#FFFFFF;stroke-width:2;stroke-opacity:0.3;}
	.st2{fill:url(#SVGID_2_);filter:url(#Adobe_OpacityMaskFilter);}
	.st3{mask:url(#mask0_231:4_1_);}
	.st4{opacity:0.1;fill-rule:evenodd;clip-rule:evenodd;fill:#3D1796;enable-background:new    ;}
	.st5{opacity:0.2;fill:none;stroke:#3D1796;stroke-linecap:round;enable-background:new    ;}
	.st6{opacity:0.2;fill:none;stroke:#3D1796;enable-background:new    ;}
	.st7{opacity:0.1;fill:#3D1796;enable-background:new    ;}
	.st8{opacity:0.25;fill:#3D1796;enable-background:new    ;}
	.st9{opacity:0.4;fill:#3D1796;enable-background:new    ;}
	.st10{opacity:0.5;fill:#3D1796;enable-background:new    ;}
	.st11{opacity:0.2;fill:#3D1796;enable-background:new    ;}
	.st12{opacity:0.35;fill:#3D1796;enable-background:new    ;}
</style>
<g>
	
		<linearGradient id="SVGID_1_" gradientUnits="userSpaceOnUse" x1="180" y1="290" x2="180" y2="60" gradientTransform="matrix(1 0 0 -1 0 310)">
		<stop  offset="0" style="stop-color:#FFE0F8"/>
		<stop  offset="1" style="stop-color:#A6FAFF"/>
	</linearGradient>
	<path class="st0" d="M0,40C0,17.9,17.9,0,40,0h52c5.6,0,10.2,4.4,10.5,10c0.3,5.6,4.9,10,10.5,10h207c22.1,0,40,17.9,40,40v150
		c0,22.1-17.9,40-40,40H40c-22.1,0-40-17.9-40-40V40z"/>
	<path class="st1" d="M1,40C1,18.5,18.5,1,40,1h52c5.1,0,9.3,4,9.5,9c0.3,6.1,5.4,11,11.5,11h207c21.5,0,39,17.5,39,39v150
		c0,21.5-17.5,39-39,39H40c-21.5,0-39-17.5-39-39V40z"/>
</g>
<defs>
	<filter id="Adobe_OpacityMaskFilter" filterUnits="userSpaceOnUse" x="0" y="24.5" width="439" height="408.7">
		<feColorMatrix  type="matrix" values="1 0 0 0 0  0 1 0 0 0  0 0 1 0 0  0 0 0 1 0"/>
	</filter>
</defs>
<mask maskUnits="userSpaceOnUse" x="0" y="24.5" width="439" height="408.7" id="mask0_231:4_1_">
	
		<linearGradient id="SVGID_2_" gradientUnits="userSpaceOnUse" x1="180" y1="290" x2="180" y2="60" gradientTransform="matrix(1 0 0 -1 0 310)">
		<stop  offset="0" style="stop-color:#FFE0F8"/>
		<stop  offset="1" style="stop-color:#A6FAFF"/>
	</linearGradient>
	<path class="st2" d="M0,40C0,17.9,17.9,0,40,0h52c5.6,0,10.2,4.4,10.5,10c0.3,5.6,4.9,10,10.5,10h207c22.1,0,40,17.9,40,40v150
		c0,22.1-17.9,40-40,40H40c-22.1,0-40-17.9-40-40V40z"/>
</mask>
<g class="st3">
	<path class="st4" d="M385.8,309.2c1.7,0,3.1,1.4,3.1,3.1v43.4c-0.7,0.2-1.3,0.8-1.3,1.6c0,0.8,0.6,1.5,1.3,1.6v57.9
		c-0.5,0.1-0.9,0.3-1.3,0.7c-0.9,0.9-0.9,2.4,0,3.4c0.9,0.9,2.4,0.9,3.3,0c0.9-0.9,0.9-2.4,0-3.4c-0.4-0.4-0.8-0.6-1.3-0.7v-57.9
		c0.7-0.2,1.3-0.8,1.3-1.6c0-0.8-0.6-1.5-1.3-1.6v-43.4c0-2.1-1.7-3.8-3.8-3.8h-14.4c-0.1-0.3-0.2-0.6-0.4-0.8
		c-0.2-0.2-0.5-0.4-0.8-0.4v-32.6c0-1-0.4-2-1.1-2.7l-33.8-34.2c0.4-0.6,0.3-1.5-0.3-2c-0.5-0.5-1.4-0.6-2-0.3l-24.6-24.9
		c-0.6-0.6-0.9-1.4-0.9-2.2V142h-0.7v66.3c0,1,0.4,2,1.1,2.7l24.6,24.9c-0.4,0.7-0.4,1.6,0.2,2.1c0.6,0.6,1.5,0.6,2.1,0.2l33.8,34.2
		c0.6,0.6,0.9,1.4,0.9,2.2h0v32.6c-0.3,0.1-0.6,0.2-0.8,0.5c-0.2,0.2-0.4,0.5-0.4,0.8h-15c-0.8,0-1.6-0.3-2.2-0.9l-27.2-27.5
		c0.3-0.6,0.3-1.5-0.3-2c-0.2-0.2-0.5-0.4-0.8-0.4v-24.5c1.1-0.2,2-1.2,2-2.3c0-1.3-1.1-2.4-2.4-2.4s-2.4,1.1-2.4,2.4
		c0,1.2,0.9,2.2,2,2.3v24.5c-0.1,0-0.3,0.1-0.4,0.2l-35.7-36.1c2-2.2,3.2-5.1,3.2-8.3c0-6.6-5.2-12.1-11.8-12.3v-59.7
		c0.7-0.2,1.3-0.8,1.3-1.6s-0.6-1.5-1.3-1.6V142h-0.7v16.1c-0.7,0.2-1.3,0.8-1.3,1.6s0.6,1.5,1.3,1.6v59.7c-3,0.1-5.8,1.3-7.9,3.3
		L247.6,203c-0.6-0.6-0.9-1.4-0.9-2.2V142H246v58.8c0,1,0.4,2,1.1,2.7l21.1,21.3c-2.1,2.2-3.4,5.2-3.4,8.5c0,6.6,5.2,12.1,11.8,12.3
		v29c0,1,0.4,2,1.1,2.7l35.8,36.1c-2,2.2-3.2,5.1-3.2,8.3c0,6.6,5.2,12.1,11.8,12.3v16.1c-1.1,0.2-2,1.2-2,2.3
		c0,1.3,1.1,2.4,2.4,2.4s2.4-1.1,2.4-2.4c0-1.2-0.9-2.2-2-2.3v-16.1c3-0.1,5.8-1.3,7.8-3.2l35.9,36.3c0.6,0.6,0.9,1.4,0.9,2.2v59.2
		c-1.1,0.2-2,1.2-2,2.3c0,1.3,1.1,2.4,2.4,2.4c1.3,0,2.4-1.1,2.4-2.4c0-1.2-0.9-2.2-2-2.3v-59.2c0-1-0.4-2-1.1-2.7l-35.9-36.3
		c2.1-2.2,3.4-5.2,3.4-8.5c0-6.6-5.2-12.1-11.8-12.3v-28.6c0.2,0,0.4-0.1,0.6-0.3l27.1,27.4c0.7,0.7,1.7,1.1,2.7,1.1h14.9
		c0.1,0.3,0.2,0.6,0.4,0.8c0.2,0.2,0.5,0.4,0.8,0.5v27c-1.1,0.2-2,1.2-2,2.4c0,1.3,1.1,2.4,2.4,2.4c1.3,0,2.4-1.1,2.4-2.4
		c0-1.2-0.9-2.2-2-2.3v-27c0.3-0.1,0.6-0.2,0.8-0.4c0.2-0.2,0.4-0.5,0.4-0.8H385.8z M321.4,320.4l-7.2-7.2c2-2,4.8-3.2,7.8-3.3v10.3
		C321.8,320.2,321.6,320.3,321.4,320.4z M322,309.5c-3.1,0.1-5.9,1.4-8,3.4l-35.8-36.1c-0.6-0.6-0.9-1.4-0.9-2.2v-29
		c3.1-0.1,5.9-1.4,8-3.4l35.7,36.1c-0.5,0.7-0.4,1.6,0.2,2.2c0.2,0.2,0.5,0.4,0.8,0.5V309.5z M322.8,320.2v-10.3
		c6.3,0.2,11.4,5.5,11.4,11.9c0,3.2-1.2,6.1-3.3,8.2l-7.2-7.2c0.5-0.7,0.4-1.6-0.2-2.2C323.4,320.4,323.1,320.2,322.8,320.2z
		 M322.8,333.7c2.9-0.1,5.6-1.3,7.6-3.1l-7.2-7.3c-0.1,0.1-0.3,0.1-0.4,0.1V333.7z M322,323.4v10.2c-6.3-0.2-11.4-5.5-11.4-11.9
		c0-3.1,1.2-5.9,3.1-8l7.2,7.3c-0.3,0.6-0.2,1.4,0.3,2C321.5,323.2,321.8,323.4,322,323.4z M276.6,245.2
		c-6.3-0.2-11.4-5.5-11.4-11.9c0-3.2,1.2-6.1,3.2-8.2l7.2,7.2c-0.2,0.3-0.3,0.6-0.3,1c0,0.8,0.6,1.5,1.3,1.6V245.2z M269,224.6
		c2-1.9,4.7-3.1,7.6-3.2v10.2c-0.2,0-0.3,0.1-0.4,0.2L269,224.6z M277.4,221.5c6.3,0.2,11.4,5.5,11.4,11.9c0,3.1-1.2,5.9-3.1,8.1
		l-7.2-7.3c0.1-0.2,0.2-0.5,0.2-0.8c0-0.8-0.6-1.5-1.3-1.6V221.5z M285.1,242l-7.2-7.2c-0.2,0.1-0.4,0.2-0.6,0.3v10.2
		C280.4,245.1,283.1,243.9,285.1,242z M408.4,186.6c1.7,0,3.1,1.4,3.1,3.1v16.9c-0.3,0.1-0.6,0.2-0.8,0.4c-0.2,0.2-0.4,0.5-0.4,0.8
		h-5.8c-1.7,0-3.1-1.4-3.1-3.1v-17c0.3-0.1,0.6-0.2,0.8-0.4c0.2-0.2,0.3-0.5,0.4-0.7H408.4z M410.2,208.6h-5.8
		c-2.1,0-3.8-1.7-3.8-3.8v-17c-0.3-0.1-0.6-0.2-0.8-0.5c-0.2-0.2-0.3-0.5-0.4-0.7h-12.8c-0.2,6.4-5.4,11.6-11.8,11.8v18.8
		c0,0.8,0.3,1.6,0.9,2.2l35.3,35.7c0.1-0.1,0.3-0.1,0.4-0.2v-45c-0.3-0.1-0.6-0.2-0.8-0.4C410.5,209.2,410.3,208.9,410.2,208.6z
		 M376.1,186.6h10.2c-0.2,6.2-5.2,11.2-11.4,11.4v-10.3c0.3-0.1,0.6-0.2,0.8-0.5C375.9,187.1,376,186.8,376.1,186.6z M374.1,187.7
		V198c-6.2-0.2-11.1-5.2-11.4-11.4h10.2c0.1,0.3,0.2,0.5,0.4,0.7C373.5,187.5,373.8,187.7,374.1,187.7z M362.3,186.6
		c0.2,6.4,5.4,11.6,11.8,11.8v18.8c0,1,0.4,2,1.1,2.7l35.3,35.7c-0.4,0.7-0.4,1.6,0.2,2.1c0.2,0.2,0.5,0.4,0.8,0.4V273
		c-6.4,0.2-11.6,5.4-11.8,11.9h-8.2c0-0.1,0-0.1,0-0.2c-0.3-1.3-1.6-2.1-2.8-1.8c-1.3,0.3-2,1.6-1.8,2.9c0.3,1.3,1.6,2.1,2.8,1.8
		c1-0.2,1.6-1,1.8-1.9h8.2c0.2,6.5,5.4,11.7,11.8,11.9v40.7c-0.3,0.1-0.6,0.2-0.8,0.4c-0.6,0.7-0.6,1.7,0,2.4
		c0.2,0.2,0.5,0.4,0.8,0.4v51.3c-1.1,0.2-2,1.2-2,2.3c0,1.3,1.1,2.4,2.4,2.4c1.3,0,2.4-1.1,2.4-2.4c0-1.2-0.9-2.2-2-2.3v-51.3
		c0.3-0.1,0.6-0.2,0.8-0.5c0.6-0.7,0.6-1.7,0-2.4c-0.2-0.2-0.5-0.4-0.8-0.5v-40.6c6.4-0.2,11.6-5.4,11.8-11.9h0
		c1.7,0,3.1,1.4,3.1,3.1v63.8c0,0,0,0-0.1,0c0,0-0.1,0-0.1,0c-1.3,0.3-2,1.6-1.8,2.9c0.3,1.3,1.6,2.1,2.8,1.8c1.3-0.3,2-1.6,1.8-2.9
		c-0.2-1-1-1.7-1.9-1.8v-63.8c0-2.1-1.7-3.8-3.8-3.8h0c-0.2-6.5-5.4-11.7-11.8-11.9v-14.9c0.2,0,0.4-0.1,0.6-0.3l12.8,12.9
		c-0.3,0.4-0.4,0.9-0.4,1.4c0,1.3,1.1,2.4,2.4,2.4c1.3,0,2.4-1.1,2.4-2.4c0-1.3-1.1-2.4-2.4-2.4c-0.5,0-1,0.2-1.4,0.4l-12.8-12.9
		c0.4-0.6,0.3-1.5-0.3-2c-0.2-0.2-0.5-0.4-0.8-0.5v-45c0.3-0.1,0.6-0.2,0.8-0.4c0.2-0.2,0.4-0.5,0.4-0.8H439v-0.8h-25.5
		c-0.1-0.3-0.2-0.6-0.4-0.8c-0.2-0.2-0.5-0.4-0.8-0.5v-16.9c0-2.1-1.7-3.8-3.8-3.8h-5.8c-0.1-0.3-0.2-0.7-0.5-0.9
		c-0.2-0.2-0.5-0.4-0.8-0.4v-32c0.3-0.1,0.6-0.2,0.8-0.4c0.7-0.7,0.7-1.7,0-2.4c-0.2-0.2-0.5-0.4-0.8-0.4V142h-0.7v7.2
		c-0.3,0.1-0.6,0.2-0.8,0.5c-0.6,0.7-0.6,1.7,0,2.4c0.2,0.2,0.5,0.4,0.8,0.5v32c-0.3,0.1-0.6,0.2-0.8,0.5c-0.3,0.3-0.4,0.6-0.5,0.9
		h-12.7c-0.1-6.5-5.3-11.8-11.8-12V142h-0.7v31.8c-6.4,0.2-11.6,5.5-11.8,12h-5.9c-0.1-0.7-0.6-1.2-1.3-1.4v-28.9
		c0.5-0.1,0.9-0.3,1.3-0.6c0.9-0.9,1-2.4,0.1-3.4c-0.9-0.9-2.4-1-3.3-0.1c-0.9,0.9-1,2.4-0.1,3.4c0.4,0.4,0.8,0.6,1.3,0.7v28.9
		c-0.7,0.2-1.2,0.7-1.3,1.4h-15.5c-1.7,0-3.1-1.4-3.1-3.1v-25.5c0.3-0.1,0.6-0.2,0.8-0.5c0.6-0.7,0.6-1.7,0-2.4
		c-0.2-0.2-0.5-0.4-0.8-0.5V142h-0.7v11.9c-0.3,0.1-0.6,0.2-0.8,0.4c-0.6,0.7-0.6,1.7,0,2.4c0.2,0.2,0.5,0.4,0.8,0.4v25.5
		c0,2.1,1.7,3.8,3.8,3.8h15.6c0.2,0.6,0.6,1,1.2,1.2v18.5c0,1.7-1.4,3.1-3.1,3.1h-14.9c-0.2-1.1-1.2-2-2.3-2c-1.3,0-2.4,1.1-2.4,2.4
		c0,1.3,1.1,2.4,2.4,2.4c1.2,0,2.1-0.9,2.3-2h14.9c2.1,0,3.8-1.7,3.8-3.8v-18.5c0.6-0.1,1.1-0.6,1.2-1.2H362.3z M412.2,273.4
		c6.2,0.2,11.2,5.3,11.4,11.5h-10.1c-0.1-0.3-0.2-0.6-0.4-0.8c-0.2-0.2-0.5-0.4-0.8-0.5V273.4z M423.6,285.7
		c-0.2,6.3-5.2,11.3-11.4,11.5v-10.2c0.3-0.1,0.6-0.2,0.8-0.5c0.2-0.2,0.4-0.5,0.4-0.8H423.6z M411.5,297.2
		c-6.2-0.2-11.2-5.3-11.4-11.5h10.1c0.1,0.3,0.2,0.6,0.4,0.8c0.2,0.2,0.5,0.4,0.8,0.4V297.2z M400.1,284.9
		c0.2-6.3,5.2-11.3,11.4-11.5v10.3c-0.3,0.1-0.6,0.2-0.8,0.4c-0.2,0.2-0.4,0.5-0.4,0.8H400.1z M386.2,185.8
		c-0.1-6.3-5.2-11.4-11.4-11.6v10.2c0.3,0.1,0.6,0.2,0.8,0.5c0.3,0.3,0.4,0.6,0.5,0.9H386.2z M374.1,184.5v-10.2
		c-6.2,0.2-11.2,5.3-11.4,11.6h10.1c0.1-0.3,0.2-0.7,0.5-0.9C373.5,184.7,373.8,184.5,374.1,184.5z M405.7,362v-4.6h4.6v4.6H405.7z
		 M405.7,356v-4.6h4.6v4.6H405.7z M405.7,363.4v4.6h4.6v-4.6H405.7z M405.7,374v-4.6h4.6v4.6H405.7z M405.7,375.5v4.6h4.6v-4.6
		H405.7z M247.9,150.9v4.6h4.6v-4.6H247.9z M247.9,144.8v4.6h4.6v-4.6H247.9z M247.9,161.5v-4.6h4.6v4.6H247.9z M247.9,162.9v4.6
		h4.6v-4.6H247.9z M247.9,173.6V169h4.6v4.6H247.9z M361.7,395.4v-4.6h4.6v4.6H361.7z M361.7,389.4v-4.6h4.6v4.6H361.7z
		 M361.7,396.8v4.6h4.6v-4.6H361.7z M361.7,407.5v-4.6h4.6v4.6H361.7z M361.7,408.9v4.6h4.6v-4.6H361.7z M364,286.9l2.3,2.6l2.3-2.6
		H364z M364,282.9l2.3,2.6l2.3-2.6H364z M366.2,293.5l-2.3-2.6h4.6L366.2,293.5z M364,294.9l2.3,2.6l2.3-2.6H364z M366.2,301.5
		l-2.3-2.6h4.6L366.2,301.5z M430.6,319.1l-2.3-2.6h4.6L430.6,319.1z M430.6,315.1l-2.3-2.6h4.6L430.6,315.1z M428.3,320.5l2.3,2.6
		l2.3-2.6H428.3z M430.6,327.1l-2.3-2.6h4.6L430.6,327.1z M428.3,328.5l2.3,2.6l2.3-2.6H428.3z M308.4,153.7l2.3,2.6l2.3-2.6H308.4z
		 M308.4,157.6l2.3,2.6l2.3-2.6H308.4z M310.7,164.2l-2.3-2.6h4.6L310.7,164.2z M308.4,165.6l2.3,2.6l2.3-2.6H308.4z M310.7,172.2
		l-2.3-2.6h4.6L310.7,172.2z"/>
	<path class="st5" d="M0.5,132.5h217.1c0.6,0,1.2,0.1,1.8,0.4l18.3,9.2c0.6,0.3,1.2,0.4,1.8,0.4H359"/>
	<path class="st5" d="M359,46H121.9c-0.6,0-1.2,0.1-1.8,0.4l-18.3,9.2c-0.6,0.3-1.2,0.4-1.8,0.4H0.5"/>
	<path class="st6" d="M247,29.5h79c1.4,0,2.5,1.1,2.5,2.5v3c0,1.4-1.1,2.5-2.5,2.5h-79c-1.4,0-2.5-1.1-2.5-2.5v-3
		C244.5,30.6,245.6,29.5,247,29.5z"/>
	<path class="st5" d="M286,25v18.5"/>
	<path class="st7" d="M249.5,32h7c0.8,0,1.5,0.7,1.5,1.5l0,0c0,0.8-0.7,1.5-1.5,1.5h-7c-0.8,0-1.5-0.7-1.5-1.5l0,0
		C248,32.7,248.7,32,249.5,32z"/>
	<path class="st8" d="M261.5,32h7c0.8,0,1.5,0.7,1.5,1.5l0,0c0,0.8-0.7,1.5-1.5,1.5h-7c-0.8,0-1.5-0.7-1.5-1.5l0,0
		C260,32.7,260.7,32,261.5,32z"/>
	<path class="st9" d="M273.5,32h7c0.8,0,1.5,0.7,1.5,1.5l0,0c0,0.8-0.7,1.5-1.5,1.5h-7c-0.8,0-1.5-0.7-1.5-1.5l0,0
		C272,32.7,272.7,32,273.5,32z"/>
	<circle class="st10" cx="145.5" cy="33.5" r="1.5"/>
	<circle class="st11" cx="123.5" cy="33.5" r="1.5"/>
	<circle class="st12" cx="134.5" cy="33.5" r="1.5"/>
</g>
</svg>
