<svg width="8" height="10" viewBox="0 0 8 10" fill="currentColor" xmlns="http://www.w3.org/2000/svg">
<path d="M6.91587 4.14181H6.50785H6.50775V2.72286C6.50773 1.2215 5.27062 0 3.74998 0C2.22942 0 0.99227 1.2215 0.99227 2.72288V4.14183H0.584173C0.261569 4.14183 0 4.40004 0 4.71859V5.06946V9.07237V9.42322C0 9.74178 0.261549 10 0.584173 10H3.75H6.91587C7.23847 10 7.5 9.74178 7.5 9.42322V9.07237V5.06946V4.71859C7.5 4.40002 7.23847 4.14181 6.91587 4.14181ZM4.37178 8.27328H3.12824L3.3508 7.22618C3.14267 7.0954 3.00364 6.86705 3.00364 6.60541C3.00364 6.19845 3.33782 5.86853 3.75 5.86853C4.1622 5.86853 4.49632 6.19845 4.49632 6.60541C4.49632 6.86705 4.35733 7.0954 4.14922 7.22614L4.37178 8.27328ZM5.52374 4.14181H3.75H1.97636H1.97626V2.72286C1.97626 1.7571 2.77191 0.971537 3.75 0.971537C4.72813 0.971537 5.52374 1.75712 5.52374 2.72286V4.14181Z" fill="white"/>
</svg>
