<svg width="63" height="80" viewBox="0 0 63 80" fill="none" xmlns="http://www.w3.org/2000/svg">
<path d="M26.7841 2.67097C27.4243 4.1364 27.9156 5.65674 28.0963 7.25189C28.2149 8.29739 28.2004 9.35262 28.0561 10.3864C27.8439 11.9064 28.919 13.3062 30.44 13.5117C32.2113 13.751 33.7541 12.2802 33.5815 10.501C33.43 8.9385 33.0414 7.39935 32.4038 5.95823C31.5581 4.04715 30.2677 2.26909 28.5684 1.02985C28.0955 0.684909 26.4591 -0.395261 26.0114 0.15204C25.6225 0.627497 26.5424 2.11755 26.7841 2.67097Z" fill="url(#paint0_linear_202:117)"/>
<path d="M35.7072 4.47514C35.0671 5.94057 34.5758 7.4609 34.3951 9.05606C34.2765 10.1016 34.2909 11.1568 34.4352 12.1905C34.6474 13.7105 33.5723 15.1104 32.0513 15.3159C30.28 15.5551 28.7373 14.0844 28.9098 12.3052C29.0613 10.7427 29.4499 9.20351 30.0875 7.76239C30.9332 5.85147 32.2236 4.07325 33.9227 2.83418C34.3957 2.48923 36.0321 1.40906 36.4798 1.95636C36.8688 2.43166 35.949 3.92172 35.7072 4.47514Z" fill="url(#paint1_linear_202:117)"/>
<path d="M30.8654 73.1206C27.6405 73.8545 24.7806 75.2307 22.3966 77.9848C21.9297 78.5256 21.9482 79.3181 22.3785 79.7277C22.8089 80.1373 23.443 80.0745 23.8508 79.6091C25.8973 77.1935 28.5188 76.0624 31.3008 75.4428C31.4288 75.4235 31.5494 75.3857 31.6604 75.3322C32.0963 75.122 32.3975 74.6674 32.3347 74.1485C32.2558 73.4972 31.5791 73.0026 30.8654 73.1206Z" fill="url(#paint2_linear_202:117)"/>
<path d="M31.8952 73.1206C35.12 73.8545 37.9799 75.2307 40.364 77.9848C40.8308 78.5256 40.8123 79.3181 40.382 79.7277C39.9516 80.1373 39.3175 80.0745 38.9097 79.6091C36.8632 77.1935 34.2417 76.0624 31.4597 75.4428C31.3317 75.4235 31.2112 75.3857 31.1002 75.3322C30.6642 75.122 30.3631 74.6674 30.4258 74.1485C30.5047 73.4972 31.1816 73.0026 31.8952 73.1206Z" fill="url(#paint3_linear_202:117)"/>
<path d="M35.8285 77.9845C34.5033 76.3956 33.025 75.2668 31.4148 74.4544C30.8041 74.1463 30.1338 74.7029 30.1338 75.5125V75.5923C30.1338 76.0606 30.3688 76.4762 30.7222 76.6532C32.0811 77.3337 33.3387 78.2752 34.4272 79.6087C34.8201 80.0743 35.4311 80.1368 35.8457 79.7273C36.2603 79.3179 36.2782 78.5252 35.8285 77.9845Z" fill="url(#paint4_linear_202:117)"/>
<path d="M26.6292 77.9845C27.9544 76.3956 29.4327 75.2668 31.0429 74.4544C31.6536 74.1463 32.3237 74.7029 32.3237 75.5125V75.5923C32.3237 76.0606 32.0887 76.4762 31.7353 76.6532C30.3764 77.3337 29.1188 78.2752 28.0303 79.6087C27.6374 80.0743 27.0264 80.1368 26.6118 79.7273C26.1974 79.3179 26.1795 78.5252 26.6292 77.9845Z" fill="url(#paint5_linear_202:117)"/>
<path d="M62.2467 48.0003C62.2467 60.391 54.4129 71.0186 43.2567 75.5394C40.1759 76.7881 22.3184 76.7881 19.2376 75.5394C8.08138 71.0186 0.247559 60.391 0.247559 48.0003C0.247559 35.6095 8.08138 24.9819 19.2376 20.4611C19.2501 20.4548 19.2627 20.4501 19.2752 20.4454C21.5278 19.5293 23.3035 17.7254 24.2337 15.4791L26.1741 10.7951C26.5469 9.89376 27.6015 9.49328 28.4791 9.9187C28.7485 10.0494 29.0222 10.2202 29.2942 10.4296C29.7569 8.0484 30.4597 6.52838 31.2471 6.52838C32.0346 6.52838 32.7374 8.0484 33.2001 10.4296C33.4721 10.2202 33.7458 10.0494 34.0152 9.9187C34.8928 9.49312 35.9474 9.89376 36.3202 10.7951L38.2606 15.4791C39.1908 17.7254 40.9665 19.5293 43.2191 20.4454C43.2316 20.4501 43.2442 20.4548 43.2567 20.4611C54.4129 24.9819 62.2467 35.6095 62.2467 48.0003Z" fill="url(#paint6_linear_202:117)"/>
<path d="M51.7989 47.322C51.7989 34.6362 46.6059 23.7556 39.2107 19.1271C39.2024 19.1207 39.1941 19.116 39.1857 19.1111C37.6926 18.1732 36.5154 16.3263 35.8988 14.0265L34.7518 9.75007C34.5055 9.7507 34.2552 9.8034 34.0177 9.91854C33.7483 10.0492 33.4746 10.22 33.2026 10.4294C33.0715 9.7543 32.9209 9.14849 32.7546 8.62692C32.6845 8.69813 32.6144 8.77359 32.5443 8.85688C32.4883 8.41123 32.4268 7.99554 32.3607 7.61294C32.0255 6.91882 31.6486 6.52838 31.2496 6.52838C30.8509 6.52838 30.4738 6.91882 30.1386 7.61294C30.0725 7.99554 30.011 8.41123 29.955 8.85688C29.8851 8.77359 29.8148 8.69829 29.7447 8.62692C29.5784 9.14865 29.4278 9.7543 29.2967 10.4294C29.0247 10.2202 28.751 10.0492 28.4816 9.91854C28.2441 9.8034 27.9939 9.7507 27.7475 9.75007L26.6005 14.0265C25.9839 16.3263 24.8067 18.1732 23.3136 19.1111C23.3052 19.116 23.2969 19.1207 23.2886 19.1271C15.8934 23.7556 10.7004 34.6362 10.7004 47.322C10.7004 60.0078 15.8934 70.8884 23.2886 75.5168C25.3308 76.7953 37.1683 76.7953 39.2107 75.5168C46.6059 70.8884 51.7989 60.0078 51.7989 47.322Z" fill="url(#paint7_linear_202:117)"/>
<path d="M34.2858 75.4212C37.1084 70.3295 39.0904 58.3602 39.0904 44.4051C39.0904 30.4499 37.1084 18.4805 34.2858 13.389C34.2826 13.382 34.2793 13.3766 34.2762 13.3713C33.9134 12.7145 33.5998 11.6511 33.3589 10.3132C33.306 10.351 33.253 10.389 33.2003 10.4296C32.7375 8.0484 32.0348 6.52838 31.2473 6.52838C30.4598 6.52838 29.7571 8.0484 29.2943 10.4296C29.2415 10.389 29.1886 10.351 29.1357 10.3132C28.8948 11.6511 28.5812 12.7145 28.2184 13.3713C28.2153 13.3766 28.2121 13.3818 28.2088 13.389C25.3859 18.4805 23.4039 30.4499 23.4039 44.4051C23.4039 58.3602 25.3859 70.3296 28.2087 75.4212C28.5983 76.1242 29.9224 76.4758 31.2465 76.4759H31.2478C32.572 76.4758 33.896 76.1241 34.2858 75.4212Z" fill="url(#paint8_linear_202:117)"/>
<path d="M0.416656 51.1376C1.61197 62.1637 9.03417 71.405 19.2362 75.5392C22.317 76.7878 40.1745 76.7878 43.2553 75.5392C53.4573 71.405 60.8795 62.1637 62.0748 51.1376H0.416656Z" fill="url(#paint9_linear_202:117)"/>
<path d="M31.3086 51.5136C28.8104 51.5136 26.7854 49.4885 26.7854 46.9905V43.702C26.7854 43.0199 27.3382 42.4673 28.0202 42.4673H34.5972C35.2792 42.4673 35.8319 43.0201 35.8319 43.702V46.9906C35.8317 49.4886 33.8067 51.5136 31.3086 51.5136Z" fill="#57565C"/>
<path d="M16.1784 50.8334C18.843 50.8334 21.0031 49.1133 21.0031 46.9914C21.0031 44.8694 18.843 43.1493 16.1784 43.1493C13.5138 43.1493 11.3536 44.8694 11.3536 46.9914C11.3536 49.1133 13.5138 50.8334 16.1784 50.8334Z" fill="url(#paint10_linear_202:117)"/>
<path d="M46.441 50.8334C49.1057 50.8334 51.2658 49.1133 51.2658 46.9914C51.2658 44.8694 49.1057 43.1493 46.441 43.1493C43.7764 43.1493 41.6163 44.8694 41.6163 46.9914C41.6163 49.1133 43.7764 50.8334 46.441 50.8334Z" fill="url(#paint11_linear_202:117)"/>
<path d="M44.2945 44.8819C43.6276 44.8819 43.0873 44.3414 43.0873 43.6747V41.6705C43.0873 41.0037 43.6276 40.4633 44.2945 40.4633C44.9614 40.4633 45.5017 41.0037 45.5017 41.6705V43.6747C45.5017 44.3413 44.9614 44.8819 44.2945 44.8819Z" fill="#57565C"/>
<path d="M18.3282 44.8819C17.6613 44.8819 17.121 44.3414 17.121 43.6747V41.6705C17.121 41.0037 17.6613 40.4633 18.3282 40.4633C18.9951 40.4633 19.5354 41.0037 19.5354 41.6705V43.6747C19.5356 44.3413 18.9949 44.8819 18.3282 44.8819Z" fill="#57565C"/>
<defs>
<linearGradient id="paint0_linear_202:117" x1="24.8465" y1="4.35256" x2="29.7093" y2="7.56829" gradientUnits="userSpaceOnUse">
<stop stop-color="#A2E62E"/>
<stop offset="0.1231" stop-color="#97DE30"/>
<stop offset="0.3395" stop-color="#79CB36"/>
<stop offset="0.6234" stop-color="#4AAB3F"/>
<stop offset="0.9609" stop-color="#09804C"/>
<stop offset="1" stop-color="#017B4E"/>
</linearGradient>
<linearGradient id="paint1_linear_202:117" x1="29.3323" y1="7.61849" x2="37.5837" y2="9.46375" gradientUnits="userSpaceOnUse">
<stop stop-color="#A2E62E"/>
<stop offset="0.1231" stop-color="#97DE30"/>
<stop offset="0.3395" stop-color="#79CB36"/>
<stop offset="0.6234" stop-color="#4AAB3F"/>
<stop offset="0.9609" stop-color="#09804C"/>
<stop offset="1" stop-color="#017B4E"/>
</linearGradient>
<linearGradient id="paint2_linear_202:117" x1="26.2543" y1="74.5802" x2="27.4627" y2="77.1661" gradientUnits="userSpaceOnUse">
<stop stop-color="#F6A96C"/>
<stop offset="1" stop-color="#C86D36"/>
</linearGradient>
<linearGradient id="paint3_linear_202:117" x1="36.4221" y1="74.5725" x2="35.2139" y2="77.1585" gradientUnits="userSpaceOnUse">
<stop stop-color="#F6A96C"/>
<stop offset="1" stop-color="#C86D36"/>
</linearGradient>
<linearGradient id="paint4_linear_202:117" x1="34.1314" y1="75.8256" x2="32.7497" y2="77.7501" gradientUnits="userSpaceOnUse">
<stop stop-color="#F6A96C"/>
<stop offset="1" stop-color="#C86D36"/>
</linearGradient>
<linearGradient id="paint5_linear_202:117" x1="28.647" y1="75.7864" x2="29.5052" y2="77.617" gradientUnits="userSpaceOnUse">
<stop stop-color="#F6A96C"/>
<stop offset="1" stop-color="#C86D36"/>
</linearGradient>
<linearGradient id="paint6_linear_202:117" x1="17.3866" y1="34.1397" x2="43.9891" y2="60.7424" gradientUnits="userSpaceOnUse">
<stop stop-color="#FFDFCF"/>
<stop offset="1" stop-color="#FFA78F"/>
</linearGradient>
<linearGradient id="paint7_linear_202:117" x1="23.0252" y1="16.7484" x2="44.6726" y2="97.22" gradientUnits="userSpaceOnUse">
<stop stop-color="#F89580" stop-opacity="0"/>
<stop offset="0.2605" stop-color="#F1907B" stop-opacity="0.261"/>
<stop offset="0.625" stop-color="#DF836D" stop-opacity="0.627"/>
<stop offset="0.9972" stop-color="#C5715A"/>
</linearGradient>
<linearGradient id="paint8_linear_202:117" x1="22.9638" y1="33.9079" x2="47.4348" y2="59.0062" gradientUnits="userSpaceOnUse">
<stop stop-color="#F89580" stop-opacity="0"/>
<stop offset="0.2605" stop-color="#F1907B" stop-opacity="0.261"/>
<stop offset="0.625" stop-color="#DF836D" stop-opacity="0.627"/>
<stop offset="0.9972" stop-color="#C5715A"/>
</linearGradient>
<linearGradient id="paint9_linear_202:117" x1="31.2457" y1="55.6867" x2="31.2457" y2="74.3061" gradientUnits="userSpaceOnUse">
<stop stop-color="#F89580" stop-opacity="0"/>
<stop offset="0.2605" stop-color="#F1907B" stop-opacity="0.261"/>
<stop offset="0.625" stop-color="#DF836D" stop-opacity="0.627"/>
<stop offset="0.9972" stop-color="#C5715A"/>
</linearGradient>
<linearGradient id="paint10_linear_202:117" x1="16.1784" y1="43.1493" x2="16.1784" y2="50.8334" gradientUnits="userSpaceOnUse">
<stop stop-color="#E87993"/>
<stop offset="1" stop-color="#FFA6BB" stop-opacity="0"/>
</linearGradient>
<linearGradient id="paint11_linear_202:117" x1="46.441" y1="43.1493" x2="46.441" y2="50.8334" gradientUnits="userSpaceOnUse">
<stop stop-color="#E87993"/>
<stop offset="1" stop-color="#FFA6BB" stop-opacity="0"/>
</linearGradient>
</defs>
</svg>
